<!DOCTYPE svg PUBLIC "-//W3C//DTD SVG 1.1//EN" "http://www.w3.org/Graphics/SVG/1.1/DTD/svg11.dtd">

<!-- Uploaded to: SVG Repo, www.svgrepo.com, Transformed by: SVG Repo Mixer Tools -->
<svg width="100px" height="100px" viewBox="0 0 24 24" id="app-store-square"
    data-name="Flat Color" xmlns="http://www.w3.org/2000/svg" class="icon flat-color">

    <g id="SVGRepo_bgCarrier" stroke-width="0" />

    <g id="SVGRepo_tracerCarrier" stroke-linecap="round" stroke-linejoin="round" />

    <g id="SVGRepo_iconCarrier">

        <rect id="primary" x="2" y="2" width="20" height="20" rx="2" style="fill: #ffffff;" />

        <path id="secondary"
            d="M18,15a1,1,0,0,0-1-1H15.92L13.14,9,14,7.49a1,1,0,0,0-1.75-1L12,6.94l-.24-.43a1,1,0,0,0-1.36-.38A1,1,0,0,0,10,7.49L10.86,9,8.08,14H7a1,1,0,0,0-1,1,1,1,0,0,0,1,1l-.29.52a1,1,0,0,0,.39,1.36.94.94,0,0,0,.48.13,1,1,0,0,0,.88-.51L9.25,16h5.5l.82,1.49a1,1,0,0,0,.88.51.94.94,0,0,0,.48-.13,1,1,0,0,0,.39-1.36L17,16A1,1,0,0,0,18,15Zm-7.63-1L12,11.06,13.63,14Z"
            style="fill: #2f2f2f;" />

    </g>

</svg>